{"title":"Toy.Story.3.2010.R5.H264.Feel-Free","uid":5874852,"size":1324398053,"categoryP":"video","categoryS":"movies","magnet":"?xt=urn:btih:00617b5f78ddf44f416f2355a22856be592852db&amp;dn=Toy.Story.3.2010.R5.H264.Feel-Free&amp;tr=udp%3A%2F%2Ftracker.openbittorrent.com%3A80&amp;tr=udp%3A%2F%2Fopen.demonii.com%3A1337&amp;tr=udp%3A%2F%2Ftracker.coppersurfer.tk%3A6969&amp;tr=udp%3A%2F%2Fexodus.desync.com%3A6969","seeders":0,"leechers":1,"uploader":"xenl","files":9,"time":1286598102,"description":"Toy.Story.3.2010.R5.H264.Feel-Free\n\nGenre:Animation | Adventure | Comedy | Family | Fantasy\nLanguage:English\nIMDb:http://www.imdb.com/title/tt0435761/\nSource:DVD9 R5\n\nGeneral\nComplete name :Toy.Story.3.2010.R5.H264.Feel-Free\nFormat : MPEG-4\nFormat profile : Base Media\nCodec ID : isom\nFile size : 1.23 GiB\nDuration : 1h 38mn\nOverall bit rate : 1 785 Kbps\nVideo #1\nCodec ID : avc1\nCodec ID/Info : Advanced Video Coding\nDuration : 1h 38mn\nBit rate mode : Variable\nBit rate : 1 536 Kbps\nWidth : 652 pixels\nHeight : 352 pixels\nDisplay aspect ratio : 1.852\nFrame rate mode : Constant\nFrame rate : 25.000 fps\nResolution : 24 bits\nColorimetry : 4:2:0\nScan type : Progressive\nBits/(Pixel*Frame) : 0.268\nStream size : 1.06 GiB (86%)\nAudio #2\nID : 2\nFormat : AAC\nFormat/Info : Advanced Audio Codec\nFormat version : Version 4\nFormat profile : LC\nFormat settings, SBR : No\nCodec ID : 40\nDuration : 1h 38mn\nBit rate mode : Variable\nBit rate : 245 Kbps\nChannel(s) : 6 channels\nChannel positions : Front: L C R, Rear: L R, LFE\nSampling rate : 48.0 KHz\nResolution : 16 bits\nStream size : 173 MiB (14%)\n\nPlot:\nThe toys are mistakenly delivered to a day-care center instead of the attic right before Andy leaves for college, and it's up to Woody to convince the other toys that they weren't abandoned and to return home","torrent":{"xt":"urn:btih:00617b5f78ddf44f416f2355a22856be592852db","amp;dn":"Toy.Story.3.2010.R5.H264.Feel-Free","amp;tr":["udp%3A%2F%2Ftracker.openbittorrent.com%3A80","udp%3A%2F%2Fopen.demonii.com%3A1337","udp%3A%2F%2Ftracker.coppersurfer.tk%3A6969","udp%3A%2F%2Fexodus.desync.com%3A6969"],"infoHash":"00617b5f78ddf44f416f2355a22856be592852db","infoHashBuffer":{"type":"Buffer","data":[0,97,123,95,120,221,244,79,65,111,35,85,162,40,86,190,89,40,82,219]},"announce":[],"urlList":[]}}